<svg width="40" height="40" viewBox="0 0 40 40" fill="none" xmlns="http://www.w3.org/2000/svg">
<path fill-rule="evenodd" clip-rule="evenodd" d="M18.2338 4.08953C18.7026 3.62136 19.338 3.3584 20.0005 3.3584C20.663 3.3584 21.2984 3.62136 21.7672 4.08953L26.4838 8.80287C26.7162 9.03503 26.9004 9.3107 27.0262 9.61412C27.1519 9.91754 27.2166 10.2428 27.2166 10.5712C27.2166 10.8996 27.1519 11.2249 27.0262 11.5283C26.9004 11.8317 26.7162 12.1074 26.4838 12.3395L21.7672 17.0529C21.2984 17.521 20.663 17.784 20.0005 17.784C19.338 17.784 18.7026 17.521 18.2338 17.0529L13.5172 12.3395C13.2849 12.1074 13.1006 11.8317 12.9748 11.5283C12.8491 11.2249 12.7844 10.8996 12.7844 10.5712C12.7844 10.2428 12.8491 9.91754 12.9748 9.61412C13.1006 9.3107 13.2849 9.03503 13.5172 8.80287L18.2338 4.08953ZM20.0005 7.0362L16.4655 10.5712L20.0005 14.1062L23.5355 10.5729L20.0005 7.0362ZM27.6605 13.5179C27.8927 13.2856 28.1683 13.1013 28.4718 12.9755C28.7752 12.8498 29.1004 12.7851 29.4288 12.7851C29.7573 12.7851 30.0825 12.8498 30.3859 12.9755C30.6893 13.1013 30.965 13.2856 31.1972 13.5179L35.9105 18.2312C36.1428 18.4634 36.3271 18.739 36.4529 19.0425C36.5786 19.3459 36.6433 19.6711 36.6433 19.9995C36.6433 20.328 36.5786 20.6532 36.4529 20.9566C36.3271 21.26 36.1428 21.5357 35.9105 21.7679L31.1972 26.4812C30.965 26.7135 30.6893 26.8978 30.3859 27.0235C30.0825 27.1493 29.7573 27.214 29.4288 27.214C29.1004 27.214 28.7752 27.1493 28.4718 27.0235C28.1683 26.8978 27.8927 26.7135 27.6605 26.4812L22.9472 21.7679C22.7149 21.5357 22.5306 21.26 22.4048 20.9566C22.2791 20.6532 22.2144 20.328 22.2144 19.9995C22.2144 19.6711 22.2791 19.3459 22.4048 19.0425C22.5306 18.739 22.7149 18.4634 22.9472 18.2312L27.6605 13.5179ZM29.4272 16.4645L25.8938 19.9979L29.4272 23.5345L32.9655 19.9995L29.4272 16.4645ZM8.80551 13.5162C9.03767 13.2839 9.31334 13.0996 9.61676 12.9739C9.92018 12.8481 10.2454 12.7834 10.5738 12.7834C10.9023 12.7834 11.2275 12.8481 11.5309 12.9739C11.8343 13.0996 12.11 13.2839 12.3422 13.5162L17.0555 18.2295C17.2878 18.4617 17.4721 18.7374 17.5979 19.0408C17.7236 19.3442 17.7883 19.6694 17.7883 19.9979C17.7883 20.3263 17.7236 20.6515 17.5979 20.9549C17.4721 21.2584 17.2878 21.534 17.0555 21.7662L12.3422 26.4795C12.11 26.7118 11.8343 26.8961 11.5309 27.0219C11.2275 27.1476 10.9023 27.2123 10.5738 27.2123C10.2454 27.2123 9.92018 27.1476 9.61676 27.0219C9.31334 26.8961 9.03767 26.7118 8.80551 26.4795L4.09217 21.7662C3.85986 21.534 3.67557 21.2584 3.54983 20.9549C3.42409 20.6515 3.35938 20.3263 3.35938 19.9979C3.35938 19.6694 3.42409 19.3442 3.54983 19.0408C3.67557 18.7374 3.85986 18.4617 4.09217 18.2295L8.80551 13.5162ZM10.5738 16.4629L7.03884 19.9962L10.5738 23.5329L14.1072 19.9995L10.5738 16.4629ZM18.2338 22.9445C18.466 22.7122 18.7417 22.5279 19.0451 22.4022C19.3485 22.2765 19.6737 22.2117 20.0022 22.2117C20.3306 22.2117 20.6558 22.2765 20.9593 22.4022C21.2627 22.5279 21.5383 22.7122 21.7705 22.9445L26.4838 27.6579C26.9525 28.1267 27.2158 28.7625 27.2158 29.4254C27.2158 30.0883 26.9525 30.724 26.4838 31.1929L21.7705 35.9079C21.5383 36.1402 21.2627 36.3245 20.9593 36.4502C20.6558 36.576 20.3306 36.6407 20.0022 36.6407C19.6737 36.6407 19.3485 36.576 19.0451 36.4502C18.7417 36.3245 18.466 36.1402 18.2338 35.9079L13.5205 31.1929C13.0523 30.7241 12.7894 30.0887 12.7894 29.4262C12.7894 28.7637 13.0523 28.1283 13.5205 27.6595L18.2338 22.9445ZM20.0005 25.8912L16.4655 29.4279L20.0005 32.9629L23.5355 29.4279L20.0005 25.8912Z" fill="#149BB0"/>
</svg>
